<svg width="141" height="20" viewBox="0 0 141 20" fill="none" xmlns="http://www.w3.org/2000/svg">
<path d="M90 0H0V20H90V0Z" fill="#555555"/>
<path d="M141 0H90V20H141V0Z" fill="#44CC11"/>
<path d="M141 0H0V20H141V0Z" fill="url(#paint0_linear_69_28)"/>
<path d="M10.3237 11.0093C10.3237 11.7362 10.1644 12.395 9.8457 12.9858C9.5306 13.5767 9.10986 14.035 8.5835 14.3608C8.21826 14.5864 7.81006 14.7493 7.35889 14.8496C6.9113 14.9499 6.32048 15 5.58643 15H3.56689V7.00244H5.56494C6.34554 7.00244 6.96501 7.05973 7.42334 7.17432C7.88525 7.28532 8.27555 7.43929 8.59424 7.63623C9.13851 7.9764 9.56283 8.42936 9.86719 8.99512C10.1715 9.56087 10.3237 10.2323 10.3237 11.0093ZM9.21191 10.9932C9.21191 10.3665 9.1027 9.83838 8.88428 9.40869C8.66585 8.979 8.34001 8.64062 7.90674 8.39355C7.59163 8.21452 7.25684 8.09098 6.90234 8.02295C6.54785 7.95133 6.12354 7.91553 5.62939 7.91553H4.63037V14.0869H5.62939C6.14144 14.0869 6.58724 14.0493 6.9668 13.9741C7.34993 13.8989 7.70085 13.7593 8.01953 13.5552C8.41699 13.3009 8.71419 12.9661 8.91113 12.5508C9.11165 12.1354 9.21191 11.6162 9.21191 10.9932ZM17.0752 12.0029C17.0752 12.9805 16.8245 13.7521 16.3232 14.3179C15.8219 14.8836 15.1506 15.1665 14.3091 15.1665C13.4604 15.1665 12.7855 14.8836 12.2842 14.3179C11.7865 13.7521 11.5376 12.9805 11.5376 12.0029C11.5376 11.0254 11.7865 10.2537 12.2842 9.68799C12.7855 9.11865 13.4604 8.83398 14.3091 8.83398C15.1506 8.83398 15.8219 9.11865 16.3232 9.68799C16.8245 10.2537 17.0752 11.0254 17.0752 12.0029ZM16.0332 12.0029C16.0332 11.2259 15.881 10.6494 15.5767 10.2734C15.2723 9.89388 14.8498 9.7041 14.3091 9.7041C13.7612 9.7041 13.3351 9.89388 13.0308 10.2734C12.73 10.6494 12.5796 11.2259 12.5796 12.0029C12.5796 12.7549 12.7318 13.326 13.0361 13.7163C13.3405 14.103 13.7648 14.2964 14.3091 14.2964C14.8462 14.2964 15.2669 14.1048 15.5713 13.7217C15.8792 13.335 16.0332 12.762 16.0332 12.0029ZM23.0801 14.624C22.7435 14.7852 22.423 14.9105 22.1187 15C21.8179 15.0895 21.4974 15.1343 21.1572 15.1343C20.724 15.1343 20.3265 15.0716 19.9648 14.9463C19.6032 14.8174 19.2935 14.624 19.0356 14.3662C18.7743 14.1084 18.5719 13.7826 18.4287 13.3887C18.2855 12.9948 18.2139 12.5347 18.2139 12.0083C18.2139 11.0272 18.4824 10.2573 19.0195 9.69873C19.5602 9.14014 20.2728 8.86084 21.1572 8.86084C21.501 8.86084 21.8376 8.90918 22.167 9.00586C22.5 9.10254 22.8044 9.2207 23.0801 9.36035V10.4829H23.0264C22.7184 10.243 22.3997 10.0586 22.0703 9.92969C21.7445 9.80078 21.4258 9.73633 21.1143 9.73633C20.5413 9.73633 20.0884 9.92969 19.7554 10.3164C19.4259 10.6995 19.2612 11.2635 19.2612 12.0083C19.2612 12.7316 19.4224 13.2884 19.7446 13.6787C20.0705 14.0654 20.527 14.2588 21.1143 14.2588C21.3184 14.2588 21.526 14.2319 21.7373 14.1782C21.9486 14.1245 22.1383 14.0547 22.3066 13.9688C22.4535 13.8936 22.5913 13.8148 22.7202 13.7324C22.8491 13.6465 22.9512 13.5731 23.0264 13.5122H23.0801V14.624ZM29.3535 15H28.3438V14.334C28.0036 14.6025 27.6777 14.8084 27.3662 14.9517C27.0547 15.0949 26.7109 15.1665 26.335 15.1665C25.7048 15.1665 25.2142 14.9749 24.8633 14.5918C24.5124 14.2051 24.3369 13.6393 24.3369 12.8945V9.00049H25.3467V12.4165C25.3467 12.7209 25.361 12.9823 25.3896 13.2007C25.4183 13.4155 25.4792 13.5999 25.5723 13.7539C25.6689 13.9115 25.7943 14.026 25.9482 14.0977C26.1022 14.1693 26.326 14.2051 26.6196 14.2051C26.881 14.2051 27.1657 14.137 27.4736 14.001C27.7852 13.8649 28.0752 13.6912 28.3438 13.48V9.00049H29.3535V15ZM40.0957 15H39.0859V11.584C39.0859 11.3262 39.0734 11.0773 39.0483 10.8374C39.0269 10.5975 38.9785 10.4059 38.9033 10.2627C38.821 10.1087 38.7028 9.99235 38.5488 9.91357C38.3949 9.8348 38.1729 9.79541 37.8828 9.79541C37.5999 9.79541 37.3171 9.86702 37.0342 10.0103C36.7513 10.1499 36.4684 10.3289 36.1855 10.5474C36.1963 10.6297 36.2052 10.7264 36.2124 10.8374C36.2196 10.9448 36.2231 11.0522 36.2231 11.1597V15H35.2134V11.584C35.2134 11.319 35.2008 11.0684 35.1758 10.832C35.1543 10.5921 35.106 10.4006 35.0308 10.2573C34.9484 10.1034 34.8302 9.98877 34.6763 9.91357C34.5223 9.8348 34.3003 9.79541 34.0103 9.79541C33.7345 9.79541 33.457 9.86344 33.1777 9.99951C32.902 10.1356 32.6263 10.3092 32.3506 10.5205V15H31.3408V9.00049H32.3506V9.6665C32.6657 9.40511 32.979 9.20101 33.2905 9.0542C33.6056 8.90739 33.9404 8.83398 34.2949 8.83398C34.7031 8.83398 35.0487 8.91992 35.3315 9.0918C35.618 9.26367 35.8311 9.50179 35.9707 9.80615C36.3789 9.4624 36.7513 9.21533 37.0879 9.06494C37.4245 8.91097 37.7843 8.83398 38.1675 8.83398C38.8263 8.83398 39.3115 9.03451 39.623 9.43555C39.9382 9.83301 40.0957 10.3898 40.0957 11.106V15ZM47.062 12.105H42.6416C42.6416 12.4738 42.6971 12.7961 42.8081 13.0718C42.9191 13.3439 43.0713 13.5677 43.2646 13.7432C43.4508 13.915 43.6711 14.0439 43.9253 14.1299C44.1831 14.2158 44.466 14.2588 44.7739 14.2588C45.1821 14.2588 45.5921 14.1782 46.0039 14.0171C46.4193 13.8524 46.7147 13.6912 46.8901 13.5337H46.9438V14.6348C46.6037 14.778 46.2563 14.8979 45.9019 14.9946C45.5474 15.0913 45.175 15.1396 44.7847 15.1396C43.7892 15.1396 43.0122 14.8711 42.4536 14.334C41.895 13.7933 41.6157 13.027 41.6157 12.0352C41.6157 11.054 41.8825 10.2752 42.416 9.69873C42.9531 9.12223 43.6585 8.83398 44.5322 8.83398C45.3415 8.83398 45.9645 9.07031 46.4014 9.54297C46.8418 10.0156 47.062 10.687 47.062 11.5571V12.105ZM46.0791 11.3315C46.0755 10.8016 45.9412 10.3916 45.6763 10.1016C45.4149 9.81152 45.0156 9.6665 44.4785 9.6665C43.9378 9.6665 43.5063 9.82585 43.1841 10.1445C42.8654 10.4632 42.6846 10.8589 42.6416 11.3315H46.0791ZM53.6094 15H52.5996V11.584C52.5996 11.3083 52.5835 11.0505 52.5513 10.8105C52.519 10.5671 52.46 10.3773 52.374 10.2412C52.2845 10.0908 52.1556 9.97982 51.9873 9.9082C51.819 9.83301 51.6006 9.79541 51.332 9.79541C51.0563 9.79541 50.7681 9.86344 50.4673 9.99951C50.1665 10.1356 49.8783 10.3092 49.6025 10.5205V15H48.5928V9.00049H49.6025V9.6665C49.9176 9.40511 50.2435 9.20101 50.5801 9.0542C50.9167 8.90739 51.2622 8.83398 51.6167 8.83398C52.2648 8.83398 52.759 9.02913 53.0991 9.41943C53.4393 9.80973 53.6094 10.3719 53.6094 11.106V15ZM58.6689 14.9463C58.4792 14.9964 58.2715 15.0376 58.0459 15.0698C57.8239 15.1021 57.6252 15.1182 57.4497 15.1182C56.8374 15.1182 56.3719 14.9535 56.0532 14.624C55.7345 14.2946 55.5752 13.7664 55.5752 13.0396V9.84912H54.8931V9.00049H55.5752V7.27637H56.585V9.00049H58.6689V9.84912H56.585V12.583C56.585 12.8981 56.5921 13.1452 56.6064 13.3242C56.6208 13.4997 56.6709 13.6644 56.7568 13.8184C56.8356 13.9616 56.943 14.0672 57.0791 14.1353C57.2188 14.1997 57.43 14.2319 57.7129 14.2319C57.8776 14.2319 58.0495 14.2087 58.2285 14.1621C58.4076 14.112 58.5365 14.0708 58.6152 14.0386H58.6689V14.9463ZM64.5557 15H63.5513V14.3608C63.4618 14.4217 63.34 14.5076 63.186 14.6187C63.0356 14.7261 62.8888 14.812 62.7456 14.8765C62.5773 14.9588 62.384 15.0269 62.1655 15.0806C61.9471 15.1379 61.6911 15.1665 61.3975 15.1665C60.8568 15.1665 60.3984 14.9875 60.0225 14.6294C59.6465 14.2713 59.4585 13.8148 59.4585 13.2598C59.4585 12.805 59.5552 12.438 59.7485 12.1587C59.9455 11.8758 60.2248 11.6538 60.5864 11.4927C60.9517 11.3315 61.3903 11.2223 61.9023 11.165C62.4144 11.1077 62.964 11.0648 63.5513 11.0361V10.8804C63.5513 10.6512 63.5101 10.4614 63.4277 10.311C63.349 10.1606 63.2344 10.0425 63.084 9.95654C62.9408 9.87419 62.7689 9.81868 62.5684 9.79004C62.3678 9.76139 62.1584 9.74707 61.9399 9.74707C61.675 9.74707 61.3796 9.78288 61.0537 9.85449C60.7279 9.92253 60.3913 10.0228 60.0439 10.1553H59.9902V9.12939C60.1872 9.07568 60.4718 9.0166 60.8442 8.95215C61.2166 8.8877 61.5837 8.85547 61.9453 8.85547C62.3678 8.85547 62.7349 8.89128 63.0464 8.96289C63.3615 9.03092 63.6336 9.14909 63.8628 9.31738C64.0884 9.4821 64.2603 9.69515 64.3784 9.95654C64.4966 10.2179 64.5557 10.542 64.5557 10.9287V15ZM63.5513 13.5229V11.8525C63.2433 11.8704 62.8799 11.8973 62.4609 11.9331C62.0456 11.9689 61.7161 12.0208 61.4727 12.0889C61.1826 12.1712 60.9481 12.3001 60.769 12.4756C60.59 12.6475 60.5005 12.8856 60.5005 13.1899C60.5005 13.5337 60.6043 13.7933 60.812 13.9688C61.0197 14.1406 61.3366 14.2266 61.7627 14.2266C62.1172 14.2266 62.4412 14.1585 62.7349 14.0225C63.0285 13.8828 63.3006 13.7163 63.5513 13.5229ZM69.6152 14.9463C69.4255 14.9964 69.2178 15.0376 68.9922 15.0698C68.7702 15.1021 68.5715 15.1182 68.396 15.1182C67.7837 15.1182 67.3182 14.9535 66.9995 14.624C66.6808 14.2946 66.5215 13.7664 66.5215 13.0396V9.84912H65.8394V9.00049H66.5215V7.27637H67.5312V9.00049H69.6152V9.84912H67.5312V12.583C67.5312 12.8981 67.5384 13.1452 67.5527 13.3242C67.5671 13.4997 67.6172 13.6644 67.7031 13.8184C67.7819 13.9616 67.8893 14.0672 68.0254 14.1353C68.165 14.1997 68.3763 14.2319 68.6592 14.2319C68.8239 14.2319 68.9958 14.2087 69.1748 14.1621C69.3538 14.112 69.4827 14.0708 69.5615 14.0386H69.6152V14.9463ZM71.9248 7.99609H70.7861V6.94873H71.9248V7.99609ZM71.8604 15H70.8506V9.00049H71.8604V15ZM78.9717 12.0029C78.9717 12.9805 78.721 13.7521 78.2197 14.3179C77.7184 14.8836 77.047 15.1665 76.2056 15.1665C75.3569 15.1665 74.682 14.8836 74.1807 14.3179C73.6829 13.7521 73.4341 12.9805 73.4341 12.0029C73.4341 11.0254 73.6829 10.2537 74.1807 9.68799C74.682 9.11865 75.3569 8.83398 76.2056 8.83398C77.047 8.83398 77.7184 9.11865 78.2197 9.68799C78.721 10.2537 78.9717 11.0254 78.9717 12.0029ZM77.9297 12.0029C77.9297 11.2259 77.7775 10.6494 77.4731 10.2734C77.1688 9.89388 76.7463 9.7041 76.2056 9.7041C75.6577 9.7041 75.2316 9.89388 74.9272 10.2734C74.6265 10.6494 74.4761 11.2259 74.4761 12.0029C74.4761 12.7549 74.6283 13.326 74.9326 13.7163C75.237 14.103 75.6613 14.2964 76.2056 14.2964C76.7427 14.2964 77.1634 14.1048 77.4678 13.7217C77.7757 13.335 77.9297 12.762 77.9297 12.0029ZM85.5566 15H84.5469V11.584C84.5469 11.3083 84.5308 11.0505 84.4985 10.8105C84.4663 10.5671 84.4072 10.3773 84.3213 10.2412C84.2318 10.0908 84.1029 9.97982 83.9346 9.9082C83.7663 9.83301 83.5479 9.79541 83.2793 9.79541C83.0036 9.79541 82.7153 9.86344 82.4146 9.99951C82.1138 10.1356 81.8255 10.3092 81.5498 10.5205V15H80.54V9.00049H81.5498V9.6665C81.8649 9.40511 82.1908 9.20101 82.5273 9.0542C82.8639 8.90739 83.2095 8.83398 83.564 8.83398C84.2121 8.83398 84.7062 9.02913 85.0464 9.41943C85.3866 9.80973 85.5566 10.3719 85.5566 11.106V15Z" fill="black" fill-opacity="0.3"/>
<path d="M10.3237 10.0093C10.3237 10.7362 10.1644 11.395 9.8457 11.9858C9.5306 12.5767 9.10986 13.035 8.5835 13.3608C8.21826 13.5864 7.81006 13.7493 7.35889 13.8496C6.9113 13.9499 6.32048 14 5.58643 14H3.56689V6.00244H5.56494C6.34554 6.00244 6.96501 6.05973 7.42334 6.17432C7.88525 6.28532 8.27555 6.43929 8.59424 6.63623C9.13851 6.9764 9.56283 7.42936 9.86719 7.99512C10.1715 8.56087 10.3237 9.23226 10.3237 10.0093ZM9.21191 9.99316C9.21191 9.36654 9.1027 8.83838 8.88428 8.40869C8.66585 7.979 8.34001 7.64062 7.90674 7.39355C7.59163 7.21452 7.25684 7.09098 6.90234 7.02295C6.54785 6.95133 6.12354 6.91553 5.62939 6.91553H4.63037V13.0869H5.62939C6.14144 13.0869 6.58724 13.0493 6.9668 12.9741C7.34993 12.8989 7.70085 12.7593 8.01953 12.5552C8.41699 12.3009 8.71419 11.9661 8.91113 11.5508C9.11165 11.1354 9.21191 10.6162 9.21191 9.99316ZM17.0752 11.0029C17.0752 11.9805 16.8245 12.7521 16.3232 13.3179C15.8219 13.8836 15.1506 14.1665 14.3091 14.1665C13.4604 14.1665 12.7855 13.8836 12.2842 13.3179C11.7865 12.7521 11.5376 11.9805 11.5376 11.0029C11.5376 10.0254 11.7865 9.25374 12.2842 8.68799C12.7855 8.11865 13.4604 7.83398 14.3091 7.83398C15.1506 7.83398 15.8219 8.11865 16.3232 8.68799C16.8245 9.25374 17.0752 10.0254 17.0752 11.0029ZM16.0332 11.0029C16.0332 10.2259 15.881 9.64941 15.5767 9.27344C15.2723 8.89388 14.8498 8.7041 14.3091 8.7041C13.7612 8.7041 13.3351 8.89388 13.0308 9.27344C12.73 9.64941 12.5796 10.2259 12.5796 11.0029C12.5796 11.7549 12.7318 12.326 13.0361 12.7163C13.3405 13.103 13.7648 13.2964 14.3091 13.2964C14.8462 13.2964 15.2669 13.1048 15.5713 12.7217C15.8792 12.335 16.0332 11.762 16.0332 11.0029ZM23.0801 13.624C22.7435 13.7852 22.423 13.9105 22.1187 14C21.8179 14.0895 21.4974 14.1343 21.1572 14.1343C20.724 14.1343 20.3265 14.0716 19.9648 13.9463C19.6032 13.8174 19.2935 13.624 19.0356 13.3662C18.7743 13.1084 18.5719 12.7826 18.4287 12.3887C18.2855 11.9948 18.2139 11.5347 18.2139 11.0083C18.2139 10.0272 18.4824 9.25732 19.0195 8.69873C19.5602 8.14014 20.2728 7.86084 21.1572 7.86084C21.501 7.86084 21.8376 7.90918 22.167 8.00586C22.5 8.10254 22.8044 8.2207 23.0801 8.36035V9.48291H23.0264C22.7184 9.243 22.3997 9.05859 22.0703 8.92969C21.7445 8.80078 21.4258 8.73633 21.1143 8.73633C20.5413 8.73633 20.0884 8.92969 19.7554 9.31641C19.4259 9.69954 19.2612 10.2635 19.2612 11.0083C19.2612 11.7316 19.4224 12.2884 19.7446 12.6787C20.0705 13.0654 20.527 13.2588 21.1143 13.2588C21.3184 13.2588 21.526 13.2319 21.7373 13.1782C21.9486 13.1245 22.1383 13.0547 22.3066 12.9688C22.4535 12.8936 22.5913 12.8148 22.7202 12.7324C22.8491 12.6465 22.9512 12.5731 23.0264 12.5122H23.0801V13.624ZM29.3535 14H28.3438V13.334C28.0036 13.6025 27.6777 13.8084 27.3662 13.9517C27.0547 14.0949 26.7109 14.1665 26.335 14.1665C25.7048 14.1665 25.2142 13.9749 24.8633 13.5918C24.5124 13.2051 24.3369 12.6393 24.3369 11.8945V8.00049H25.3467V11.4165C25.3467 11.7209 25.361 11.9823 25.3896 12.2007C25.4183 12.4155 25.4792 12.5999 25.5723 12.7539C25.6689 12.9115 25.7943 13.026 25.9482 13.0977C26.1022 13.1693 26.326 13.2051 26.6196 13.2051C26.881 13.2051 27.1657 13.137 27.4736 13.001C27.7852 12.8649 28.0752 12.6912 28.3438 12.48V8.00049H29.3535V14ZM40.0957 14H39.0859V10.584C39.0859 10.3262 39.0734 10.0773 39.0483 9.8374C39.0269 9.59749 38.9785 9.40592 38.9033 9.2627C38.821 9.10872 38.7028 8.99235 38.5488 8.91357C38.3949 8.8348 38.1729 8.79541 37.8828 8.79541C37.5999 8.79541 37.3171 8.86702 37.0342 9.01025C36.7513 9.1499 36.4684 9.32894 36.1855 9.54736C36.1963 9.62972 36.2052 9.7264 36.2124 9.8374C36.2196 9.94482 36.2231 10.0522 36.2231 10.1597V14H35.2134V10.584C35.2134 10.319 35.2008 10.0684 35.1758 9.83203C35.1543 9.59212 35.106 9.40055 35.0308 9.25732C34.9484 9.10335 34.8302 8.98877 34.6763 8.91357C34.5223 8.8348 34.3003 8.79541 34.0103 8.79541C33.7345 8.79541 33.457 8.86344 33.1777 8.99951C32.902 9.13558 32.6263 9.30924 32.3506 9.52051V14H31.3408V8.00049H32.3506V8.6665C32.6657 8.40511 32.979 8.20101 33.2905 8.0542C33.6056 7.90739 33.9404 7.83398 34.2949 7.83398C34.7031 7.83398 35.0487 7.91992 35.3315 8.0918C35.618 8.26367 35.8311 8.50179 35.9707 8.80615C36.3789 8.4624 36.7513 8.21533 37.0879 8.06494C37.4245 7.91097 37.7843 7.83398 38.1675 7.83398C38.8263 7.83398 39.3115 8.03451 39.623 8.43555C39.9382 8.83301 40.0957 9.38981 40.0957 10.106V14ZM47.062 11.105H42.6416C42.6416 11.4738 42.6971 11.7961 42.8081 12.0718C42.9191 12.3439 43.0713 12.5677 43.2646 12.7432C43.4508 12.915 43.6711 13.0439 43.9253 13.1299C44.1831 13.2158 44.466 13.2588 44.7739 13.2588C45.1821 13.2588 45.5921 13.1782 46.0039 13.0171C46.4193 12.8524 46.7147 12.6912 46.8901 12.5337H46.9438V13.6348C46.6037 13.778 46.2563 13.8979 45.9019 13.9946C45.5474 14.0913 45.175 14.1396 44.7847 14.1396C43.7892 14.1396 43.0122 13.8711 42.4536 13.334C41.895 12.7933 41.6157 12.027 41.6157 11.0352C41.6157 10.054 41.8825 9.27523 42.416 8.69873C42.9531 8.12223 43.6585 7.83398 44.5322 7.83398C45.3415 7.83398 45.9645 8.07031 46.4014 8.54297C46.8418 9.01562 47.062 9.68701 47.062 10.5571V11.105ZM46.0791 10.3315C46.0755 9.8016 45.9412 9.3916 45.6763 9.10156C45.4149 8.81152 45.0156 8.6665 44.4785 8.6665C43.9378 8.6665 43.5063 8.82585 43.1841 9.14453C42.8654 9.46322 42.6846 9.85889 42.6416 10.3315H46.0791ZM53.6094 14H52.5996V10.584C52.5996 10.3083 52.5835 10.0505 52.5513 9.81055C52.519 9.56706 52.46 9.37728 52.374 9.24121C52.2845 9.09082 52.1556 8.97982 51.9873 8.9082C51.819 8.83301 51.6006 8.79541 51.332 8.79541C51.0563 8.79541 50.7681 8.86344 50.4673 8.99951C50.1665 9.13558 49.8783 9.30924 49.6025 9.52051V14H48.5928V8.00049H49.6025V8.6665C49.9176 8.40511 50.2435 8.20101 50.5801 8.0542C50.9167 7.90739 51.2622 7.83398 51.6167 7.83398C52.2648 7.83398 52.759 8.02913 53.0991 8.41943C53.4393 8.80973 53.6094 9.37191 53.6094 10.106V14ZM58.6689 13.9463C58.4792 13.9964 58.2715 14.0376 58.0459 14.0698C57.8239 14.1021 57.6252 14.1182 57.4497 14.1182C56.8374 14.1182 56.3719 13.9535 56.0532 13.624C55.7345 13.2946 55.5752 12.7664 55.5752 12.0396V8.84912H54.8931V8.00049H55.5752V6.27637H56.585V8.00049H58.6689V8.84912H56.585V11.583C56.585 11.8981 56.5921 12.1452 56.6064 12.3242C56.6208 12.4997 56.6709 12.6644 56.7568 12.8184C56.8356 12.9616 56.943 13.0672 57.0791 13.1353C57.2188 13.1997 57.43 13.2319 57.7129 13.2319C57.8776 13.2319 58.0495 13.2087 58.2285 13.1621C58.4076 13.112 58.5365 13.0708 58.6152 13.0386H58.6689V13.9463ZM64.5557 14H63.5513V13.3608C63.4618 13.4217 63.34 13.5076 63.186 13.6187C63.0356 13.7261 62.8888 13.812 62.7456 13.8765C62.5773 13.9588 62.384 14.0269 62.1655 14.0806C61.9471 14.1379 61.6911 14.1665 61.3975 14.1665C60.8568 14.1665 60.3984 13.9875 60.0225 13.6294C59.6465 13.2713 59.4585 12.8148 59.4585 12.2598C59.4585 11.805 59.5552 11.438 59.7485 11.1587C59.9455 10.8758 60.2248 10.6538 60.5864 10.4927C60.9517 10.3315 61.3903 10.2223 61.9023 10.165C62.4144 10.1077 62.964 10.0648 63.5513 10.0361V9.88037C63.5513 9.6512 63.5101 9.46143 63.4277 9.31104C63.349 9.16064 63.2344 9.04248 63.084 8.95654C62.9408 8.87419 62.7689 8.81868 62.5684 8.79004C62.3678 8.76139 62.1584 8.74707 61.9399 8.74707C61.675 8.74707 61.3796 8.78288 61.0537 8.85449C60.7279 8.92253 60.3913 9.02279 60.0439 9.15527H59.9902V8.12939C60.1872 8.07568 60.4718 8.0166 60.8442 7.95215C61.2166 7.8877 61.5837 7.85547 61.9453 7.85547C62.3678 7.85547 62.7349 7.89128 63.0464 7.96289C63.3615 8.03092 63.6336 8.14909 63.8628 8.31738C64.0884 8.4821 64.2603 8.69515 64.3784 8.95654C64.4966 9.21794 64.5557 9.54199 64.5557 9.92871V14ZM63.5513 12.5229V10.8525C63.2433 10.8704 62.8799 10.8973 62.4609 10.9331C62.0456 10.9689 61.7161 11.0208 61.4727 11.0889C61.1826 11.1712 60.9481 11.3001 60.769 11.4756C60.59 11.6475 60.5005 11.8856 60.5005 12.1899C60.5005 12.5337 60.6043 12.7933 60.812 12.9688C61.0197 13.1406 61.3366 13.2266 61.7627 13.2266C62.1172 13.2266 62.4412 13.1585 62.7349 13.0225C63.0285 12.8828 63.3006 12.7163 63.5513 12.5229ZM69.6152 13.9463C69.4255 13.9964 69.2178 14.0376 68.9922 14.0698C68.7702 14.1021 68.5715 14.1182 68.396 14.1182C67.7837 14.1182 67.3182 13.9535 66.9995 13.624C66.6808 13.2946 66.5215 12.7664 66.5215 12.0396V8.84912H65.8394V8.00049H66.5215V6.27637H67.5312V8.00049H69.6152V8.84912H67.5312V11.583C67.5312 11.8981 67.5384 12.1452 67.5527 12.3242C67.5671 12.4997 67.6172 12.6644 67.7031 12.8184C67.7819 12.9616 67.8893 13.0672 68.0254 13.1353C68.165 13.1997 68.3763 13.2319 68.6592 13.2319C68.8239 13.2319 68.9958 13.2087 69.1748 13.1621C69.3538 13.112 69.4827 13.0708 69.5615 13.0386H69.6152V13.9463ZM71.9248 6.99609H70.7861V5.94873H71.9248V6.99609ZM71.8604 14H70.8506V8.00049H71.8604V14ZM78.9717 11.0029C78.9717 11.9805 78.721 12.7521 78.2197 13.3179C77.7184 13.8836 77.047 14.1665 76.2056 14.1665C75.3569 14.1665 74.682 13.8836 74.1807 13.3179C73.6829 12.7521 73.4341 11.9805 73.4341 11.0029C73.4341 10.0254 73.6829 9.25374 74.1807 8.68799C74.682 8.11865 75.3569 7.83398 76.2056 7.83398C77.047 7.83398 77.7184 8.11865 78.2197 8.68799C78.721 9.25374 78.9717 10.0254 78.9717 11.0029ZM77.9297 11.0029C77.9297 10.2259 77.7775 9.64941 77.4731 9.27344C77.1688 8.89388 76.7463 8.7041 76.2056 8.7041C75.6577 8.7041 75.2316 8.89388 74.9272 9.27344C74.6265 9.64941 74.4761 10.2259 74.4761 11.0029C74.4761 11.7549 74.6283 12.326 74.9326 12.7163C75.237 13.103 75.6613 13.2964 76.2056 13.2964C76.7427 13.2964 77.1634 13.1048 77.4678 12.7217C77.7757 12.335 77.9297 11.762 77.9297 11.0029ZM85.5566 14H84.5469V10.584C84.5469 10.3083 84.5308 10.0505 84.4985 9.81055C84.4663 9.56706 84.4072 9.37728 84.3213 9.24121C84.2318 9.09082 84.1029 8.97982 83.9346 8.9082C83.7663 8.83301 83.5479 8.79541 83.2793 8.79541C83.0036 8.79541 82.7153 8.86344 82.4146 8.99951C82.1138 9.13558 81.8255 9.30924 81.5498 9.52051V14H80.54V8.00049H81.5498V8.6665C81.8649 8.40511 82.1908 8.20101 82.5273 8.0542C82.8639 7.90739 83.2095 7.83398 83.564 7.83398C84.2121 7.83398 84.7062 8.02913 85.0464 8.41943C85.3866 8.80973 85.5566 9.37191 85.5566 10.106V14Z" fill="white"/>
<path d="M107.465 12.7495H106.278V15H105.247V12.7495H101.417V11.5142L105.29 7.00244H106.278V11.8901H107.465V12.7495ZM105.247 11.8901V8.28076L102.147 11.8901H105.247ZM110.639 15H109.355V13.4692H110.639V15ZM118.4 12.4058C118.4 13.2186 118.132 13.8828 117.595 14.3984C117.061 14.9105 116.406 15.1665 115.629 15.1665C115.235 15.1665 114.877 15.1056 114.555 14.9839C114.232 14.8621 113.948 14.6813 113.701 14.4414C113.393 14.1442 113.155 13.7503 112.986 13.2598C112.822 12.7692 112.739 12.1784 112.739 11.4873C112.739 10.7783 112.814 10.1499 112.965 9.60205C113.119 9.0542 113.362 8.56722 113.695 8.14111C114.01 7.73649 114.417 7.42139 114.915 7.1958C115.412 6.96663 115.992 6.85205 116.655 6.85205C116.866 6.85205 117.043 6.861 117.187 6.87891C117.33 6.89681 117.475 6.92904 117.622 6.97559V8.00146H117.568C117.468 7.94775 117.315 7.89762 117.111 7.85107C116.911 7.80094 116.705 7.77588 116.494 7.77588C115.724 7.77588 115.11 8.01758 114.651 8.50098C114.193 8.98079 113.926 9.6307 113.851 10.4507C114.152 10.2681 114.447 10.1302 114.737 10.0371C115.031 9.94043 115.369 9.89209 115.752 9.89209C116.093 9.89209 116.392 9.92432 116.649 9.98877C116.911 10.0496 117.178 10.175 117.45 10.3647C117.765 10.5832 118.001 10.8589 118.159 11.1919C118.32 11.5249 118.4 11.9295 118.4 12.4058ZM117.31 12.4487C117.31 12.1157 117.26 11.84 117.16 11.6216C117.063 11.4032 116.902 11.2134 116.676 11.0522C116.512 10.9377 116.329 10.8625 116.128 10.8267C115.928 10.7909 115.718 10.7729 115.5 10.7729C115.196 10.7729 114.913 10.8088 114.651 10.8804C114.39 10.952 114.121 11.063 113.846 11.2134C113.839 11.2922 113.833 11.3691 113.83 11.4443C113.826 11.516 113.824 11.6073 113.824 11.7183C113.824 12.284 113.882 12.7316 113.996 13.061C114.114 13.3869 114.275 13.6447 114.479 13.8345C114.644 13.992 114.821 14.1084 115.011 14.1836C115.205 14.2552 115.414 14.291 115.64 14.291C116.159 14.291 116.567 14.1335 116.864 13.8184C117.161 13.4997 117.31 13.0431 117.31 12.4487ZM121.639 15H120.355V13.4692H121.639V15ZM128.579 11.1489C128.75 11.3029 128.892 11.4963 129.003 11.729C129.114 11.9618 129.169 12.2625 129.169 12.6313C129.169 12.9966 129.103 13.3314 128.971 13.6357C128.838 13.9401 128.652 14.2051 128.412 14.4307C128.144 14.6813 127.827 14.8675 127.461 14.9893C127.1 15.1074 126.702 15.1665 126.269 15.1665C125.825 15.1665 125.388 15.1128 124.958 15.0054C124.529 14.9015 124.176 14.7869 123.9 14.6616V13.5391H123.981C124.285 13.7396 124.643 13.9061 125.055 14.0386C125.467 14.1711 125.864 14.2373 126.248 14.2373C126.473 14.2373 126.713 14.1997 126.967 14.1245C127.222 14.0493 127.427 13.9383 127.585 13.7915C127.75 13.634 127.871 13.4603 127.95 13.2705C128.033 13.0807 128.074 12.8408 128.074 12.5508C128.074 12.2643 128.027 12.028 127.934 11.8418C127.845 11.652 127.719 11.5034 127.558 11.396C127.397 11.285 127.202 11.2098 126.973 11.1704C126.743 11.1274 126.496 11.106 126.231 11.106H125.748V10.2144H126.124C126.668 10.2144 127.102 10.1016 127.424 9.87598C127.75 9.64681 127.913 9.3138 127.913 8.87695C127.913 8.68359 127.871 8.5153 127.789 8.37207C127.707 8.22526 127.592 8.10531 127.445 8.01221C127.291 7.91911 127.127 7.85465 126.951 7.81885C126.776 7.78304 126.577 7.76514 126.355 7.76514C126.015 7.76514 125.653 7.82601 125.27 7.94775C124.887 8.0695 124.525 8.24137 124.185 8.46338H124.131V7.34082C124.386 7.21549 124.724 7.10091 125.146 6.99707C125.573 6.88965 125.984 6.83594 126.382 6.83594C126.772 6.83594 127.116 6.87174 127.413 6.94336C127.71 7.01497 127.979 7.12956 128.219 7.28711C128.477 7.45898 128.672 7.66667 128.804 7.91016C128.937 8.15365 129.003 8.43831 129.003 8.76416C129.003 9.20817 128.845 9.59668 128.53 9.92969C128.219 10.2591 127.85 10.4668 127.424 10.5527V10.6279C127.596 10.6566 127.793 10.7174 128.015 10.8105C128.237 10.9001 128.425 11.0129 128.579 11.1489Z" fill="#010101" fill-opacity="0.3"/>
<path d="M107.465 11.7495H106.278V14H105.247V11.7495H101.417V10.5142L105.29 6.00244H106.278V10.8901H107.465V11.7495ZM105.247 10.8901V7.28076L102.147 10.8901H105.247ZM110.639 14H109.355V12.4692H110.639V14ZM118.4 11.4058C118.4 12.2186 118.132 12.8828 117.595 13.3984C117.061 13.9105 116.406 14.1665 115.629 14.1665C115.235 14.1665 114.877 14.1056 114.555 13.9839C114.232 13.8621 113.948 13.6813 113.701 13.4414C113.393 13.1442 113.155 12.7503 112.986 12.2598C112.822 11.7692 112.739 11.1784 112.739 10.4873C112.739 9.77832 112.814 9.1499 112.965 8.60205C113.119 8.0542 113.362 7.56722 113.695 7.14111C114.01 6.73649 114.417 6.42139 114.915 6.1958C115.412 5.96663 115.992 5.85205 116.655 5.85205C116.866 5.85205 117.043 5.861 117.187 5.87891C117.33 5.89681 117.475 5.92904 117.622 5.97559V7.00146H117.568C117.468 6.94775 117.315 6.89762 117.111 6.85107C116.911 6.80094 116.705 6.77588 116.494 6.77588C115.724 6.77588 115.11 7.01758 114.651 7.50098C114.193 7.98079 113.926 8.6307 113.851 9.45068C114.152 9.26807 114.447 9.13021 114.737 9.03711C115.031 8.94043 115.369 8.89209 115.752 8.89209C116.093 8.89209 116.392 8.92432 116.649 8.98877C116.911 9.04964 117.178 9.17497 117.45 9.36475C117.765 9.58317 118.001 9.85889 118.159 10.1919C118.32 10.5249 118.4 10.9295 118.4 11.4058ZM117.31 11.4487C117.31 11.1157 117.26 10.84 117.16 10.6216C117.063 10.4032 116.902 10.2134 116.676 10.0522C116.512 9.93766 116.329 9.86247 116.128 9.82666C115.928 9.79085 115.718 9.77295 115.5 9.77295C115.196 9.77295 114.913 9.80876 114.651 9.88037C114.39 9.95199 114.121 10.063 113.846 10.2134C113.839 10.2922 113.833 10.3691 113.83 10.4443C113.826 10.516 113.824 10.6073 113.824 10.7183C113.824 11.284 113.882 11.7316 113.996 12.061C114.114 12.3869 114.275 12.6447 114.479 12.8345C114.644 12.992 114.821 13.1084 115.011 13.1836C115.205 13.2552 115.414 13.291 115.64 13.291C116.159 13.291 116.567 13.1335 116.864 12.8184C117.161 12.4997 117.31 12.0431 117.31 11.4487ZM121.639 14H120.355V12.4692H121.639V14ZM128.579 10.1489C128.75 10.3029 128.892 10.4963 129.003 10.729C129.114 10.9618 129.169 11.2625 129.169 11.6313C129.169 11.9966 129.103 12.3314 128.971 12.6357C128.838 12.9401 128.652 13.2051 128.412 13.4307C128.144 13.6813 127.827 13.8675 127.461 13.9893C127.1 14.1074 126.702 14.1665 126.269 14.1665C125.825 14.1665 125.388 14.1128 124.958 14.0054C124.529 13.9015 124.176 13.7869 123.9 13.6616V12.5391H123.981C124.285 12.7396 124.643 12.9061 125.055 13.0386C125.467 13.1711 125.864 13.2373 126.248 13.2373C126.473 13.2373 126.713 13.1997 126.967 13.1245C127.222 13.0493 127.427 12.9383 127.585 12.7915C127.75 12.634 127.871 12.4603 127.95 12.2705C128.033 12.0807 128.074 11.8408 128.074 11.5508C128.074 11.2643 128.027 11.028 127.934 10.8418C127.845 10.652 127.719 10.5034 127.558 10.396C127.397 10.285 127.202 10.2098 126.973 10.1704C126.743 10.1274 126.496 10.106 126.231 10.106H125.748V9.21436H126.124C126.668 9.21436 127.102 9.10156 127.424 8.87598C127.75 8.64681 127.913 8.3138 127.913 7.87695C127.913 7.68359 127.871 7.5153 127.789 7.37207C127.707 7.22526 127.592 7.10531 127.445 7.01221C127.291 6.91911 127.127 6.85465 126.951 6.81885C126.776 6.78304 126.577 6.76514 126.355 6.76514C126.015 6.76514 125.653 6.82601 125.27 6.94775C124.887 7.0695 124.525 7.24137 124.185 7.46338H124.131V6.34082C124.386 6.21549 124.724 6.10091 125.146 5.99707C125.573 5.88965 125.984 5.83594 126.382 5.83594C126.772 5.83594 127.116 5.87174 127.413 5.94336C127.71 6.01497 127.979 6.12956 128.219 6.28711C128.477 6.45898 128.672 6.66667 128.804 6.91016C128.937 7.15365 129.003 7.43831 129.003 7.76416C129.003 8.20817 128.845 8.59668 128.53 8.92969C128.219 9.25911 127.85 9.4668 127.424 9.55273V9.62793C127.596 9.65658 127.793 9.71745 128.015 9.81055C128.237 9.90007 128.425 10.0129 128.579 10.1489Z" fill="white"/>
<defs>
<linearGradient id="paint0_linear_69_28" x1="0" y1="0" x2="0" y2="20" gradientUnits="userSpaceOnUse">
<stop stop-color="#BBBBBB" stop-opacity="0.1"/>
<stop offset="1" stop-opacity="0.1"/>
</linearGradient>
</defs>
</svg>
