<svg width="107" height="20" viewBox="0 0 107 20" fill="none" xmlns="http://www.w3.org/2000/svg">
<path d="M56 0H0V20H56V0Z" fill="#555555"/>
<path d="M107 0H56V20H107V0Z" fill="#44CC11"/>
<path d="M107 0H0V20H107V0Z" fill="url(#paint0_linear_69_16)"/>
<path d="M8.53076 15H7.521V14.3716C7.23096 14.6222 6.92839 14.8174 6.61328 14.957C6.29818 15.0967 5.95622 15.1665 5.5874 15.1665C4.87126 15.1665 4.30192 14.8908 3.87939 14.3394C3.46045 13.7879 3.25098 13.0234 3.25098 12.0459C3.25098 11.5374 3.32259 11.0845 3.46582 10.687C3.61263 10.2896 3.80957 9.95117 4.05664 9.67188C4.30013 9.39974 4.58301 9.19206 4.90527 9.04883C5.23112 8.9056 5.56771 8.83398 5.91504 8.83398C6.23014 8.83398 6.50944 8.868 6.75293 8.93604C6.99642 9.00049 7.25244 9.10254 7.521 9.24219V6.64258H8.53076V15ZM7.521 13.5229V10.0801C7.24886 9.95833 7.00537 9.87419 6.79053 9.82764C6.57568 9.78109 6.34115 9.75781 6.08691 9.75781C5.52116 9.75781 5.08073 9.95475 4.76562 10.3486C4.45052 10.7425 4.29297 11.3011 4.29297 12.0244C4.29297 12.737 4.41471 13.2795 4.6582 13.6519C4.90169 14.0207 5.29199 14.2051 5.8291 14.2051C6.11556 14.2051 6.4056 14.1424 6.69922 14.0171C6.99284 13.8882 7.26676 13.7235 7.521 13.5229ZM15.6313 12.0029C15.6313 12.9805 15.3807 13.7521 14.8794 14.3179C14.3781 14.8836 13.7067 15.1665 12.8652 15.1665C12.0166 15.1665 11.3416 14.8836 10.8403 14.3179C10.3426 13.7521 10.0938 12.9805 10.0938 12.0029C10.0938 11.0254 10.3426 10.2537 10.8403 9.68799C11.3416 9.11865 12.0166 8.83398 12.8652 8.83398C13.7067 8.83398 14.3781 9.11865 14.8794 9.68799C15.3807 10.2537 15.6313 11.0254 15.6313 12.0029ZM14.5894 12.0029C14.5894 11.2259 14.4372 10.6494 14.1328 10.2734C13.8285 9.89388 13.4059 9.7041 12.8652 9.7041C12.3174 9.7041 11.8913 9.89388 11.5869 10.2734C11.2861 10.6494 11.1357 11.2259 11.1357 12.0029C11.1357 12.7549 11.2879 13.326 11.5923 13.7163C11.8966 14.103 12.321 14.2964 12.8652 14.2964C13.4023 14.2964 13.8231 14.1048 14.1274 13.7217C14.4354 13.335 14.5894 12.762 14.5894 12.0029ZM24.7461 9.00049L23.1831 15H22.2485L20.707 10.3755L19.1763 15H18.2471L16.668 9.00049H17.7207L18.8218 13.6465L20.3203 9.00049H21.1528L22.689 13.6465L23.731 9.00049H24.7461ZM31.2183 15H30.2085V11.584C30.2085 11.3083 30.1924 11.0505 30.1602 10.8105C30.1279 10.5671 30.0688 10.3773 29.9829 10.2412C29.8934 10.0908 29.7645 9.97982 29.5962 9.9082C29.4279 9.83301 29.2095 9.79541 28.9409 9.79541C28.6652 9.79541 28.377 9.86344 28.0762 9.99951C27.7754 10.1356 27.4871 10.3092 27.2114 10.5205V15H26.2017V9.00049H27.2114V9.6665C27.5265 9.40511 27.8524 9.20101 28.189 9.0542C28.5256 8.90739 28.8711 8.83398 29.2256 8.83398C29.8737 8.83398 30.3678 9.02913 30.708 9.41943C31.0482 9.80973 31.2183 10.3719 31.2183 11.106V15ZM34.1831 15H33.1733V6.64258H34.1831V15ZM41.2944 12.0029C41.2944 12.9805 41.0438 13.7521 40.5425 14.3179C40.0412 14.8836 39.3698 15.1665 38.5283 15.1665C37.6797 15.1665 37.0047 14.8836 36.5034 14.3179C36.0057 13.7521 35.7568 12.9805 35.7568 12.0029C35.7568 11.0254 36.0057 10.2537 36.5034 9.68799C37.0047 9.11865 37.6797 8.83398 38.5283 8.83398C39.3698 8.83398 40.0412 9.11865 40.5425 9.68799C41.0438 10.2537 41.2944 11.0254 41.2944 12.0029ZM40.2524 12.0029C40.2524 11.2259 40.1003 10.6494 39.7959 10.2734C39.4915 9.89388 39.069 9.7041 38.5283 9.7041C37.9805 9.7041 37.5544 9.89388 37.25 10.2734C36.9492 10.6494 36.7988 11.2259 36.7988 12.0029C36.7988 12.7549 36.951 13.326 37.2554 13.7163C37.5597 14.103 37.984 14.2964 38.5283 14.2964C39.0654 14.2964 39.4862 14.1048 39.7905 13.7217C40.0985 13.335 40.2524 12.762 40.2524 12.0029ZM47.5249 15H46.5205V14.3608C46.431 14.4217 46.3092 14.5076 46.1553 14.6187C46.0049 14.7261 45.8581 14.812 45.7148 14.8765C45.5465 14.9588 45.3532 15.0269 45.1348 15.0806C44.9163 15.1379 44.6603 15.1665 44.3667 15.1665C43.826 15.1665 43.3677 14.9875 42.9917 14.6294C42.6157 14.2713 42.4277 13.8148 42.4277 13.2598C42.4277 12.805 42.5244 12.438 42.7178 12.1587C42.9147 11.8758 43.194 11.6538 43.5557 11.4927C43.9209 11.3315 44.3595 11.2223 44.8716 11.165C45.3836 11.1077 45.9333 11.0648 46.5205 11.0361V10.8804C46.5205 10.6512 46.4793 10.4614 46.397 10.311C46.3182 10.1606 46.2036 10.0425 46.0532 9.95654C45.91 9.87419 45.7381 9.81868 45.5376 9.79004C45.3371 9.76139 45.1276 9.74707 44.9092 9.74707C44.6442 9.74707 44.3488 9.78288 44.0229 9.85449C43.6971 9.92253 43.3605 10.0228 43.0132 10.1553H42.9595V9.12939C43.1564 9.07568 43.4411 9.0166 43.8135 8.95215C44.1859 8.8877 44.5529 8.85547 44.9146 8.85547C45.3371 8.85547 45.7041 8.89128 46.0156 8.96289C46.3307 9.03092 46.6029 9.14909 46.832 9.31738C47.0576 9.4821 47.2295 9.69515 47.3477 9.95654C47.4658 10.2179 47.5249 10.542 47.5249 10.9287V15ZM46.5205 13.5229V11.8525C46.2126 11.8704 45.8491 11.8973 45.4302 11.9331C45.0148 11.9689 44.6854 12.0208 44.4419 12.0889C44.1519 12.1712 43.9173 12.3001 43.7383 12.4756C43.5592 12.6475 43.4697 12.8856 43.4697 13.1899C43.4697 13.5337 43.5736 13.7933 43.7812 13.9688C43.9889 14.1406 44.3058 14.2266 44.7319 14.2266C45.0864 14.2266 45.4105 14.1585 45.7041 14.0225C45.9977 13.8828 46.2699 13.7163 46.5205 13.5229ZM54.3354 15H53.3257V14.3716C53.0356 14.6222 52.7331 14.8174 52.418 14.957C52.1029 15.0967 51.7609 15.1665 51.3921 15.1665C50.6759 15.1665 50.1066 14.8908 49.6841 14.3394C49.2651 13.7879 49.0557 13.0234 49.0557 12.0459C49.0557 11.5374 49.1273 11.0845 49.2705 10.687C49.4173 10.2896 49.6143 9.95117 49.8613 9.67188C50.1048 9.39974 50.3877 9.19206 50.71 9.04883C51.0358 8.9056 51.3724 8.83398 51.7197 8.83398C52.0348 8.83398 52.3141 8.868 52.5576 8.93604C52.8011 9.00049 53.0571 9.10254 53.3257 9.24219V6.64258H54.3354V15ZM53.3257 13.5229V10.0801C53.0535 9.95833 52.8101 9.87419 52.5952 9.82764C52.3804 9.78109 52.1458 9.75781 51.8916 9.75781C51.3258 9.75781 50.8854 9.95475 50.5703 10.3486C50.2552 10.7425 50.0977 11.3011 50.0977 12.0244C50.0977 12.737 50.2194 13.2795 50.4629 13.6519C50.7064 14.0207 51.0967 14.2051 51.6338 14.2051C51.9202 14.2051 52.2103 14.1424 52.5039 14.0171C52.7975 13.8882 53.0715 13.7235 53.3257 13.5229Z" fill="black" fill-opacity="0.3"/>
<path d="M8.53076 14H7.521V13.3716C7.23096 13.6222 6.92839 13.8174 6.61328 13.957C6.29818 14.0967 5.95622 14.1665 5.5874 14.1665C4.87126 14.1665 4.30192 13.8908 3.87939 13.3394C3.46045 12.7879 3.25098 12.0234 3.25098 11.0459C3.25098 10.5374 3.32259 10.0845 3.46582 9.68701C3.61263 9.28955 3.80957 8.95117 4.05664 8.67188C4.30013 8.39974 4.58301 8.19206 4.90527 8.04883C5.23112 7.9056 5.56771 7.83398 5.91504 7.83398C6.23014 7.83398 6.50944 7.868 6.75293 7.93604C6.99642 8.00049 7.25244 8.10254 7.521 8.24219V5.64258H8.53076V14ZM7.521 12.5229V9.08008C7.24886 8.95833 7.00537 8.87419 6.79053 8.82764C6.57568 8.78109 6.34115 8.75781 6.08691 8.75781C5.52116 8.75781 5.08073 8.95475 4.76562 9.34863C4.45052 9.74251 4.29297 10.3011 4.29297 11.0244C4.29297 11.737 4.41471 12.2795 4.6582 12.6519C4.90169 13.0207 5.29199 13.2051 5.8291 13.2051C6.11556 13.2051 6.4056 13.1424 6.69922 13.0171C6.99284 12.8882 7.26676 12.7235 7.521 12.5229ZM15.6313 11.0029C15.6313 11.9805 15.3807 12.7521 14.8794 13.3179C14.3781 13.8836 13.7067 14.1665 12.8652 14.1665C12.0166 14.1665 11.3416 13.8836 10.8403 13.3179C10.3426 12.7521 10.0938 11.9805 10.0938 11.0029C10.0938 10.0254 10.3426 9.25374 10.8403 8.68799C11.3416 8.11865 12.0166 7.83398 12.8652 7.83398C13.7067 7.83398 14.3781 8.11865 14.8794 8.68799C15.3807 9.25374 15.6313 10.0254 15.6313 11.0029ZM14.5894 11.0029C14.5894 10.2259 14.4372 9.64941 14.1328 9.27344C13.8285 8.89388 13.4059 8.7041 12.8652 8.7041C12.3174 8.7041 11.8913 8.89388 11.5869 9.27344C11.2861 9.64941 11.1357 10.2259 11.1357 11.0029C11.1357 11.7549 11.2879 12.326 11.5923 12.7163C11.8966 13.103 12.321 13.2964 12.8652 13.2964C13.4023 13.2964 13.8231 13.1048 14.1274 12.7217C14.4354 12.335 14.5894 11.762 14.5894 11.0029ZM24.7461 8.00049L23.1831 14H22.2485L20.707 9.37549L19.1763 14H18.2471L16.668 8.00049H17.7207L18.8218 12.6465L20.3203 8.00049H21.1528L22.689 12.6465L23.731 8.00049H24.7461ZM31.2183 14H30.2085V10.584C30.2085 10.3083 30.1924 10.0505 30.1602 9.81055C30.1279 9.56706 30.0688 9.37728 29.9829 9.24121C29.8934 9.09082 29.7645 8.97982 29.5962 8.9082C29.4279 8.83301 29.2095 8.79541 28.9409 8.79541C28.6652 8.79541 28.377 8.86344 28.0762 8.99951C27.7754 9.13558 27.4871 9.30924 27.2114 9.52051V14H26.2017V8.00049H27.2114V8.6665C27.5265 8.40511 27.8524 8.20101 28.189 8.0542C28.5256 7.90739 28.8711 7.83398 29.2256 7.83398C29.8737 7.83398 30.3678 8.02913 30.708 8.41943C31.0482 8.80973 31.2183 9.37191 31.2183 10.106V14ZM34.1831 14H33.1733V5.64258H34.1831V14ZM41.2944 11.0029C41.2944 11.9805 41.0438 12.7521 40.5425 13.3179C40.0412 13.8836 39.3698 14.1665 38.5283 14.1665C37.6797 14.1665 37.0047 13.8836 36.5034 13.3179C36.0057 12.7521 35.7568 11.9805 35.7568 11.0029C35.7568 10.0254 36.0057 9.25374 36.5034 8.68799C37.0047 8.11865 37.6797 7.83398 38.5283 7.83398C39.3698 7.83398 40.0412 8.11865 40.5425 8.68799C41.0438 9.25374 41.2944 10.0254 41.2944 11.0029ZM40.2524 11.0029C40.2524 10.2259 40.1003 9.64941 39.7959 9.27344C39.4915 8.89388 39.069 8.7041 38.5283 8.7041C37.9805 8.7041 37.5544 8.89388 37.25 9.27344C36.9492 9.64941 36.7988 10.2259 36.7988 11.0029C36.7988 11.7549 36.951 12.326 37.2554 12.7163C37.5597 13.103 37.984 13.2964 38.5283 13.2964C39.0654 13.2964 39.4862 13.1048 39.7905 12.7217C40.0985 12.335 40.2524 11.762 40.2524 11.0029ZM47.5249 14H46.5205V13.3608C46.431 13.4217 46.3092 13.5076 46.1553 13.6187C46.0049 13.7261 45.8581 13.812 45.7148 13.8765C45.5465 13.9588 45.3532 14.0269 45.1348 14.0806C44.9163 14.1379 44.6603 14.1665 44.3667 14.1665C43.826 14.1665 43.3677 13.9875 42.9917 13.6294C42.6157 13.2713 42.4277 12.8148 42.4277 12.2598C42.4277 11.805 42.5244 11.438 42.7178 11.1587C42.9147 10.8758 43.194 10.6538 43.5557 10.4927C43.9209 10.3315 44.3595 10.2223 44.8716 10.165C45.3836 10.1077 45.9333 10.0648 46.5205 10.0361V9.88037C46.5205 9.6512 46.4793 9.46143 46.397 9.31104C46.3182 9.16064 46.2036 9.04248 46.0532 8.95654C45.91 8.87419 45.7381 8.81868 45.5376 8.79004C45.3371 8.76139 45.1276 8.74707 44.9092 8.74707C44.6442 8.74707 44.3488 8.78288 44.0229 8.85449C43.6971 8.92253 43.3605 9.02279 43.0132 9.15527H42.9595V8.12939C43.1564 8.07568 43.4411 8.0166 43.8135 7.95215C44.1859 7.8877 44.5529 7.85547 44.9146 7.85547C45.3371 7.85547 45.7041 7.89128 46.0156 7.96289C46.3307 8.03092 46.6029 8.14909 46.832 8.31738C47.0576 8.4821 47.2295 8.69515 47.3477 8.95654C47.4658 9.21794 47.5249 9.54199 47.5249 9.92871V14ZM46.5205 12.5229V10.8525C46.2126 10.8704 45.8491 10.8973 45.4302 10.9331C45.0148 10.9689 44.6854 11.0208 44.4419 11.0889C44.1519 11.1712 43.9173 11.3001 43.7383 11.4756C43.5592 11.6475 43.4697 11.8856 43.4697 12.1899C43.4697 12.5337 43.5736 12.7933 43.7812 12.9688C43.9889 13.1406 44.3058 13.2266 44.7319 13.2266C45.0864 13.2266 45.4105 13.1585 45.7041 13.0225C45.9977 12.8828 46.2699 12.7163 46.5205 12.5229ZM54.3354 14H53.3257V13.3716C53.0356 13.6222 52.7331 13.8174 52.418 13.957C52.1029 14.0967 51.7609 14.1665 51.3921 14.1665C50.6759 14.1665 50.1066 13.8908 49.6841 13.3394C49.2651 12.7879 49.0557 12.0234 49.0557 11.0459C49.0557 10.5374 49.1273 10.0845 49.2705 9.68701C49.4173 9.28955 49.6143 8.95117 49.8613 8.67188C50.1048 8.39974 50.3877 8.19206 50.71 8.04883C51.0358 7.9056 51.3724 7.83398 51.7197 7.83398C52.0348 7.83398 52.3141 7.868 52.5576 7.93604C52.8011 8.00049 53.0571 8.10254 53.3257 8.24219V5.64258H54.3354V14ZM53.3257 12.5229V9.08008C53.0535 8.95833 52.8101 8.87419 52.5952 8.82764C52.3804 8.78109 52.1458 8.75781 51.8916 8.75781C51.3258 8.75781 50.8854 8.95475 50.5703 9.34863C50.2552 9.74251 50.0977 10.3011 50.0977 11.0244C50.0977 11.737 50.2194 12.2795 50.4629 12.6519C50.7064 13.0207 51.0967 13.2051 51.6338 13.2051C51.9202 13.2051 52.2103 13.1424 52.5039 13.0171C52.7975 12.8882 53.0715 12.7235 53.3257 12.5229Z" fill="white"/>
<path d="M73.4648 12.7495H72.2778V15H71.2466V12.7495H67.417V11.5142L71.2896 7.00244H72.2778V11.8901H73.4648V12.7495ZM71.2466 11.8901V8.28076L68.1475 11.8901H71.2466ZM76.6392 15H75.3555V13.4692H76.6392V15ZM84.4004 12.4058C84.4004 13.2186 84.1318 13.8828 83.5947 14.3984C83.0612 14.9105 82.4059 15.1665 81.6289 15.1665C81.235 15.1665 80.877 15.1056 80.5547 14.9839C80.2324 14.8621 79.9478 14.6813 79.7007 14.4414C79.3927 14.1442 79.1546 13.7503 78.9863 13.2598C78.8216 12.7692 78.7393 12.1784 78.7393 11.4873C78.7393 10.7783 78.8145 10.1499 78.9648 9.60205C79.1188 9.0542 79.3623 8.56722 79.6953 8.14111C80.0104 7.73649 80.4168 7.42139 80.9146 7.1958C81.4123 6.96663 81.9924 6.85205 82.6548 6.85205C82.866 6.85205 83.0433 6.861 83.1865 6.87891C83.3298 6.89681 83.4748 6.92904 83.6216 6.97559V8.00146H83.5679C83.4676 7.94775 83.3154 7.89762 83.1113 7.85107C82.9108 7.80094 82.7049 7.77588 82.4937 7.77588C81.7238 7.77588 81.1097 8.01758 80.6514 8.50098C80.193 8.98079 79.9263 9.6307 79.8511 10.4507C80.1519 10.2681 80.4473 10.1302 80.7373 10.0371C81.0309 9.94043 81.3693 9.89209 81.7524 9.89209C82.0926 9.89209 82.3916 9.92432 82.6494 9.98877C82.9108 10.0496 83.1776 10.175 83.4497 10.3647C83.7648 10.5832 84.0011 10.8589 84.1587 11.1919C84.3198 11.5249 84.4004 11.9295 84.4004 12.4058ZM83.3101 12.4487C83.3101 12.1157 83.2599 11.84 83.1597 11.6216C83.063 11.4032 82.9019 11.2134 82.6763 11.0522C82.5116 10.9377 82.3289 10.8625 82.1284 10.8267C81.9279 10.7909 81.7184 10.7729 81.5 10.7729C81.1956 10.7729 80.9128 10.8088 80.6514 10.8804C80.39 10.952 80.1214 11.063 79.8457 11.2134C79.8385 11.2922 79.8332 11.3691 79.8296 11.4443C79.826 11.516 79.8242 11.6073 79.8242 11.7183C79.8242 12.284 79.8815 12.7316 79.9961 13.061C80.1143 13.3869 80.2754 13.6447 80.4795 13.8345C80.6442 13.992 80.8215 14.1084 81.0112 14.1836C81.2046 14.2552 81.4141 14.291 81.6396 14.291C82.1589 14.291 82.5671 14.1335 82.8643 13.8184C83.1615 13.4997 83.3101 13.0431 83.3101 12.4487ZM87.6392 15H86.3555V13.4692H87.6392V15ZM94.5786 11.1489C94.7505 11.3029 94.8919 11.4963 95.0029 11.729C95.1139 11.9618 95.1694 12.2625 95.1694 12.6313C95.1694 12.9966 95.1032 13.3314 94.9707 13.6357C94.8382 13.9401 94.652 14.2051 94.4121 14.4307C94.1436 14.6813 93.8267 14.8675 93.4614 14.9893C93.0998 15.1074 92.7023 15.1665 92.269 15.1665C91.825 15.1665 91.3882 15.1128 90.9585 15.0054C90.5288 14.9015 90.1761 14.7869 89.9004 14.6616V13.5391H89.981C90.2853 13.7396 90.6434 13.9061 91.0552 14.0386C91.467 14.1711 91.8644 14.2373 92.2476 14.2373C92.4731 14.2373 92.7131 14.1997 92.9673 14.1245C93.2215 14.0493 93.4274 13.9383 93.585 13.7915C93.7497 13.634 93.8714 13.4603 93.9502 13.2705C94.0326 13.0807 94.0737 12.8408 94.0737 12.5508C94.0737 12.2643 94.0272 12.028 93.9341 11.8418C93.8446 11.652 93.7192 11.5034 93.5581 11.396C93.397 11.285 93.2018 11.2098 92.9727 11.1704C92.7435 11.1274 92.4964 11.106 92.2314 11.106H91.748V10.2144H92.124C92.6683 10.2144 93.1016 10.1016 93.4238 9.87598C93.7497 9.64681 93.9126 9.3138 93.9126 8.87695C93.9126 8.68359 93.8714 8.5153 93.7891 8.37207C93.7067 8.22526 93.5921 8.10531 93.4453 8.01221C93.2913 7.91911 93.1266 7.85465 92.9512 7.81885C92.7757 7.78304 92.577 7.76514 92.355 7.76514C92.0148 7.76514 91.6532 7.82601 91.27 7.94775C90.8869 8.0695 90.5252 8.24137 90.1851 8.46338H90.1313V7.34082C90.3856 7.21549 90.724 7.10091 91.1465 6.99707C91.5726 6.88965 91.9844 6.83594 92.3818 6.83594C92.7721 6.83594 93.1159 6.87174 93.4131 6.94336C93.7103 7.01497 93.9788 7.12956 94.2188 7.28711C94.4766 7.45898 94.6717 7.66667 94.8042 7.91016C94.9367 8.15365 95.0029 8.43831 95.0029 8.76416C95.0029 9.20817 94.8454 9.59668 94.5303 9.92969C94.2188 10.2591 93.8499 10.4668 93.4238 10.5527V10.6279C93.5957 10.6566 93.7926 10.7174 94.0146 10.8105C94.2367 10.9001 94.4246 11.0129 94.5786 11.1489Z" fill="#010101" fill-opacity="0.3"/>
<path d="M73.4648 11.7495H72.2778V14H71.2466V11.7495H67.417V10.5142L71.2896 6.00244H72.2778V10.8901H73.4648V11.7495ZM71.2466 10.8901V7.28076L68.1475 10.8901H71.2466ZM76.6392 14H75.3555V12.4692H76.6392V14ZM84.4004 11.4058C84.4004 12.2186 84.1318 12.8828 83.5947 13.3984C83.0612 13.9105 82.4059 14.1665 81.6289 14.1665C81.235 14.1665 80.877 14.1056 80.5547 13.9839C80.2324 13.8621 79.9478 13.6813 79.7007 13.4414C79.3927 13.1442 79.1546 12.7503 78.9863 12.2598C78.8216 11.7692 78.7393 11.1784 78.7393 10.4873C78.7393 9.77832 78.8145 9.1499 78.9648 8.60205C79.1188 8.0542 79.3623 7.56722 79.6953 7.14111C80.0104 6.73649 80.4168 6.42139 80.9146 6.1958C81.4123 5.96663 81.9924 5.85205 82.6548 5.85205C82.866 5.85205 83.0433 5.861 83.1865 5.87891C83.3298 5.89681 83.4748 5.92904 83.6216 5.97559V7.00146H83.5679C83.4676 6.94775 83.3154 6.89762 83.1113 6.85107C82.9108 6.80094 82.7049 6.77588 82.4937 6.77588C81.7238 6.77588 81.1097 7.01758 80.6514 7.50098C80.193 7.98079 79.9263 8.6307 79.8511 9.45068C80.1519 9.26807 80.4473 9.13021 80.7373 9.03711C81.0309 8.94043 81.3693 8.89209 81.7524 8.89209C82.0926 8.89209 82.3916 8.92432 82.6494 8.98877C82.9108 9.04964 83.1776 9.17497 83.4497 9.36475C83.7648 9.58317 84.0011 9.85889 84.1587 10.1919C84.3198 10.5249 84.4004 10.9295 84.4004 11.4058ZM83.3101 11.4487C83.3101 11.1157 83.2599 10.84 83.1597 10.6216C83.063 10.4032 82.9019 10.2134 82.6763 10.0522C82.5116 9.93766 82.3289 9.86247 82.1284 9.82666C81.9279 9.79085 81.7184 9.77295 81.5 9.77295C81.1956 9.77295 80.9128 9.80876 80.6514 9.88037C80.39 9.95199 80.1214 10.063 79.8457 10.2134C79.8385 10.2922 79.8332 10.3691 79.8296 10.4443C79.826 10.516 79.8242 10.6073 79.8242 10.7183C79.8242 11.284 79.8815 11.7316 79.9961 12.061C80.1143 12.3869 80.2754 12.6447 80.4795 12.8345C80.6442 12.992 80.8215 13.1084 81.0112 13.1836C81.2046 13.2552 81.4141 13.291 81.6396 13.291C82.1589 13.291 82.5671 13.1335 82.8643 12.8184C83.1615 12.4997 83.3101 12.0431 83.3101 11.4487ZM87.6392 14H86.3555V12.4692H87.6392V14ZM94.5786 10.1489C94.7505 10.3029 94.8919 10.4963 95.0029 10.729C95.1139 10.9618 95.1694 11.2625 95.1694 11.6313C95.1694 11.9966 95.1032 12.3314 94.9707 12.6357C94.8382 12.9401 94.652 13.2051 94.4121 13.4307C94.1436 13.6813 93.8267 13.8675 93.4614 13.9893C93.0998 14.1074 92.7023 14.1665 92.269 14.1665C91.825 14.1665 91.3882 14.1128 90.9585 14.0054C90.5288 13.9015 90.1761 13.7869 89.9004 13.6616V12.5391H89.981C90.2853 12.7396 90.6434 12.9061 91.0552 13.0386C91.467 13.1711 91.8644 13.2373 92.2476 13.2373C92.4731 13.2373 92.7131 13.1997 92.9673 13.1245C93.2215 13.0493 93.4274 12.9383 93.585 12.7915C93.7497 12.634 93.8714 12.4603 93.9502 12.2705C94.0326 12.0807 94.0737 11.8408 94.0737 11.5508C94.0737 11.2643 94.0272 11.028 93.9341 10.8418C93.8446 10.652 93.7192 10.5034 93.5581 10.396C93.397 10.285 93.2018 10.2098 92.9727 10.1704C92.7435 10.1274 92.4964 10.106 92.2314 10.106H91.748V9.21436H92.124C92.6683 9.21436 93.1016 9.10156 93.4238 8.87598C93.7497 8.64681 93.9126 8.3138 93.9126 7.87695C93.9126 7.68359 93.8714 7.5153 93.7891 7.37207C93.7067 7.22526 93.5921 7.10531 93.4453 7.01221C93.2913 6.91911 93.1266 6.85465 92.9512 6.81885C92.7757 6.78304 92.577 6.76514 92.355 6.76514C92.0148 6.76514 91.6532 6.82601 91.27 6.94775C90.8869 7.0695 90.5252 7.24137 90.1851 7.46338H90.1313V6.34082C90.3856 6.21549 90.724 6.10091 91.1465 5.99707C91.5726 5.88965 91.9844 5.83594 92.3818 5.83594C92.7721 5.83594 93.1159 5.87174 93.4131 5.94336C93.7103 6.01497 93.9788 6.12956 94.2188 6.28711C94.4766 6.45898 94.6717 6.66667 94.8042 6.91016C94.9367 7.15365 95.0029 7.43831 95.0029 7.76416C95.0029 8.20817 94.8454 8.59668 94.5303 8.92969C94.2188 9.25911 93.8499 9.4668 93.4238 9.55273V9.62793C93.5957 9.65658 93.7926 9.71745 94.0146 9.81055C94.2367 9.90007 94.4246 10.0129 94.5786 10.1489Z" fill="white"/>
<defs>
<linearGradient id="paint0_linear_69_16" x1="0" y1="0" x2="0" y2="20" gradientUnits="userSpaceOnUse">
<stop stop-color="#BBBBBB" stop-opacity="0.1"/>
<stop offset="1" stop-opacity="0.1"/>
</linearGradient>
</defs>
</svg>
